<svg width="45" height="22" viewBox="0 0 45 22" fill="none" xmlns="http://www.w3.org/2000/svg">
<path d="M33.3339 4.86953L32.4801 6.91453H34.1936L33.3339 4.86953ZM23.4647 6.13753C23.5485 6.08715 23.6166 6.01453 23.6613 5.92781C23.706 5.84109 23.7256 5.7437 23.7178 5.64653C23.7244 5.55358 23.7034 5.46074 23.6573 5.37964C23.6112 5.29853 23.5421 5.23276 23.4587 5.19053C23.2725 5.11408 23.071 5.08189 22.8701 5.09653H21.3394V6.23653H22.846C23.0575 6.26473 23.2727 6.23029 23.4647 6.13753V6.13753ZM3.86199 4.86953L3.01429 6.91453H4.7097L3.86199 4.86953ZM43.2271 17.9885H40.8297V16.8885H43.2201C43.398 16.912 43.578 16.8657 43.7223 16.7595C43.7692 16.7176 43.8066 16.6662 43.8321 16.6088C43.8575 16.5514 43.8704 16.4893 43.87 16.4265C43.8734 16.362 43.8613 16.2976 43.8347 16.2387C43.8082 16.1797 43.7679 16.1279 43.7173 16.0875C43.5909 15.9975 43.4361 15.956 43.2814 15.9705C42.1153 15.9295 40.6609 16.0055 40.6609 14.3815C40.6609 13.6395 41.138 12.8505 42.4447 12.8505H44.9165V11.8275H42.6205C42.0705 11.7999 41.5259 11.9474 41.0657 12.2485V11.8275H37.6618C37.134 11.799 36.6117 11.9472 36.1783 12.2485V11.8275H30.1017V12.2485C29.5925 11.9609 29.0148 11.8154 28.4294 11.8275H24.4189V12.2485C23.8975 11.9226 23.2836 11.7748 22.6702 11.8275H18.1886L17.1642 12.9275L16.204 11.8275H9.49764V18.9975H16.0694L17.129 17.8815L18.1244 18.9975L22.1761 19.0035V17.3145H22.5778C23.1662 17.3504 23.7557 17.2649 24.3094 17.0635V18.9975H27.641V17.1275H27.7997C28.0056 17.1275 28.0237 17.1335 28.0237 17.3375V18.9915H38.168C38.7659 19.0154 39.3565 18.854 39.8584 18.5295V18.9915H43.0795C43.7033 19.0138 44.3244 18.9002 44.8995 18.6585V17.3205C44.6985 17.5619 44.4402 17.7494 44.148 17.8661C43.8558 17.9827 43.5389 18.0248 43.2261 17.9885H43.2271ZM22.619 16.2935H21.0743V18.0175H18.6637L17.133 16.3175L15.5431 18.0175H10.6216V12.8805H15.6204L17.1511 14.5635L18.729 12.8805H22.6974C23.6807 12.8805 24.7935 13.1495 24.7935 14.5755C24.7935 16.0015 23.7118 16.2935 22.619 16.2935ZM30.0736 16.0595C30.2442 16.3399 30.3167 16.6688 30.2795 16.9945V18.0115H29.0351V17.3685C29.0351 17.0585 29.0642 16.6025 28.8342 16.3635C28.7045 16.2677 28.5571 16.1982 28.4005 16.1591C28.2438 16.12 28.081 16.112 27.9212 16.1355H26.5974V18.0115H25.349V12.8745H28.2165C28.7272 12.8323 29.2405 12.9147 29.712 13.1145C29.9171 13.2233 30.0862 13.3888 30.199 13.591C30.3118 13.7933 30.3635 14.0237 30.3478 14.2545C30.356 14.5444 30.2761 14.83 30.1186 15.0739C29.9611 15.3178 29.7333 15.5087 29.465 15.6215C29.7047 15.7112 29.9161 15.8627 30.0776 16.0605L30.0736 16.0595ZM35.2081 13.9445H32.2953V14.8795H35.1338V15.9255H32.3034V16.9485L35.2161 16.9545V18.0185H31.067V12.8815H35.2121L35.2081 13.9445ZM38.4 18.0175H35.9795V16.9175H38.39C38.5677 16.9383 38.7468 16.8923 38.8922 16.7885C38.938 16.7458 38.9747 16.6942 39.0001 16.637C39.0255 16.5798 39.039 16.5181 39.0398 16.4555C39.0419 16.3912 39.0292 16.3272 39.0028 16.2685C38.9763 16.2098 38.9368 16.1578 38.8872 16.1165C38.7576 16.0289 38.6011 15.9896 38.4452 16.0055C37.2852 15.9645 35.8338 16.0405 35.8338 14.4165C35.8338 13.6685 36.3049 12.8855 37.6126 12.8855H40.1035V13.9785H37.8265C37.6535 13.957 37.478 13.9895 37.3243 14.0715C37.2598 14.1148 37.2084 14.1749 37.1756 14.2451C37.1429 14.3154 37.1301 14.3933 37.1385 14.4703C37.147 14.5473 37.1765 14.6206 37.2237 14.6821C37.271 14.7437 37.3343 14.7912 37.4067 14.8195C37.563 14.8671 37.7266 14.8867 37.8898 14.8775L38.5607 14.8955C39.0694 14.8516 39.576 14.9998 39.9799 15.3105C40.1142 15.4562 40.2164 15.628 40.2802 15.8152C40.344 16.0023 40.368 16.2007 40.3506 16.3975C40.3526 17.4995 39.6585 18.0175 38.4041 18.0175H38.4ZM28.7659 14.0275C28.5785 13.9481 28.3742 13.9162 28.1713 13.9345H26.6446V15.0855H28.1512C28.3612 15.1061 28.5729 15.0698 28.7639 14.9805C28.8465 14.9284 28.9139 14.8557 28.9593 14.7695C29.0048 14.6833 29.0268 14.5868 29.023 14.4895C29.0303 14.3963 29.0103 14.3029 28.9653 14.2207C28.9204 14.1385 28.8525 14.0711 28.7699 14.0265L28.7659 14.0275ZM42.6456 13.9345C42.4724 13.9126 42.2968 13.9455 42.1434 14.0285C42.0824 14.0677 42.0332 14.1226 42.001 14.1874C41.9688 14.2522 41.9548 14.3245 41.9606 14.3965C41.9575 14.4808 41.9824 14.5636 42.0315 14.6323C42.0805 14.701 42.1509 14.7517 42.2318 14.7765C42.3861 14.8237 42.5477 14.8433 42.7089 14.8345L43.3798 14.8525C43.8846 14.8066 44.3879 14.9551 44.786 15.2675C44.8312 15.3046 44.8708 15.3481 44.9035 15.3965V13.9355H42.6496L42.6456 13.9345ZM22.6662 13.9345H21.0502V15.2435H22.6572C23.1343 15.2435 23.4286 15.0095 23.4286 14.5655C23.4286 14.1215 23.1212 13.9335 22.6702 13.9335L22.6662 13.9345ZM11.8549 13.9345V14.8695H14.5839V15.9155H11.858V16.9385H14.9143L16.3335 15.4305L14.9736 13.9305L11.8549 13.9345ZM19.8278 17.5285V13.4085L17.9195 15.4365L19.8278 17.5285ZM11.9544 9.27753V10.1595H22.3398L22.3338 8.28953H22.5347C22.6763 8.29553 22.7175 8.30753 22.7175 8.53453V10.1595H28.0879V9.72153C28.7067 10.0243 29.3894 10.1745 30.0786 10.1595H32.3395L32.8226 9.01953H33.8943L34.3654 10.1595H38.7174V9.07853L39.3773 10.1595H42.8636V2.99953H39.4105V3.84653L38.9273 2.99953H35.3889V3.84653L34.9469 2.99953H30.166C29.4505 2.96538 28.7379 3.11011 28.093 3.42053V2.99953H24.7895V3.42053C24.3887 3.11291 23.8881 2.96304 23.3834 2.99953H11.3226L10.5191 4.85153L9.67943 2.99953H5.88183V3.84653L5.464 2.99953H2.22986L0.723267 6.40653V9.12953L2.949 3.99253H4.79206L6.90128 8.85453V3.99253H8.93217L10.5573 7.47552L12.0528 3.99253H14.1199V9.12953H12.8473L12.8413 5.10953L11.0394 9.12953H9.95062L8.14271 5.10353V9.12953H5.61667L5.14259 7.98453H2.55427L2.07116 9.12953H0.723267V10.1635H2.84354L3.32063 9.02353H4.39131L4.86839 10.1635H9.04365V9.29253L9.41427 10.1695H11.5807L11.9544 9.27753ZM28.3129 4.59053C28.5705 4.36973 28.87 4.20282 29.1938 4.09974C29.5175 3.99666 29.8587 3.95952 30.1972 3.99053H31.4024V5.09053H30.2243C30.0529 5.06864 29.8788 5.08414 29.714 5.13594C29.5493 5.18774 29.3978 5.27461 29.2701 5.39052C29.009 5.72011 28.8808 6.13481 28.9105 6.55353C28.8744 6.98153 28.9957 7.40803 29.252 7.75352C29.4949 7.95062 29.8058 8.04504 30.1178 8.01652H30.6773L32.4259 3.97853H34.2871L36.3892 8.83453V3.98752H38.2795L40.4641 7.56353V3.98752H41.7356V9.12453H39.9759L37.6206 5.26752V9.12453H35.0886L34.6054 7.97953H32.0262L31.5551 9.12453H30.1007C29.4505 9.16302 28.8088 8.96111 28.2989 8.55752C28.0581 8.29366 27.8747 7.98306 27.7603 7.64524C27.6458 7.30742 27.6028 6.94969 27.634 6.59453C27.5869 5.86234 27.8324 5.14132 28.3169 4.58853L28.3129 4.59053ZM25.7578 3.99053H27.0233V9.12752H25.7578V3.99053ZM20.0458 3.99053H22.9013C23.4164 3.93903 23.936 4.02352 24.4078 4.23553C24.6118 4.34515 24.7797 4.51099 24.8914 4.71318C25.0031 4.91537 25.0538 5.14534 25.0376 5.37553C25.0465 5.66488 24.9674 5.95017 24.8108 6.19407C24.6542 6.43797 24.4273 6.62912 24.1598 6.74253C24.3993 6.82899 24.611 6.97824 24.7724 7.17453C24.9458 7.45607 25.0183 7.78772 24.9783 8.11553V9.12652H23.7239L23.7178 8.47753C23.7692 8.13195 23.7008 7.77927 23.524 7.47753C23.2638 7.2878 22.939 7.20802 22.62 7.25553H21.2922V9.12553H20.0498V3.99253L20.0458 3.99053ZM15.0349 3.99053H19.186V5.05953H16.2733V5.98253H19.1117V7.03453H16.2803V8.06253H19.193V9.12652H15.0379V3.99253L15.0349 3.99053Z" fill="#2557D6"/>
</svg>
